8_US_stride3.mot
nRows=153
nColumns=3

name 8_US_stride3.mot
datacolumns 3
datarows 153
range 0.910000 1.670000
endheader
time	soleus_l	med_gas_l
        0.9100000000	       34.6351612466	       38.7195843613	
        0.9150000000	       34.3596077868	       38.6504388276	
        0.9200000000	       33.9841118574	       38.4704677022	
        0.9250000000	       33.5952520031	       38.1291377686	
        0.9300000000	       33.3133767767	       37.7419898071	
        0.9350000000	       33.0218514847	       37.1314339363	
        0.9400000000	       32.8390088817	       36.3190323956	
        0.9450000000	       32.7972487735	       35.5133163227	
        0.9500000000	       32.9814088657	       34.7823713747	
        0.9550000000	       33.3620644641	       34.2322088611	
        0.9600000000	       33.7407110726	       33.9619367588	
        0.9650000000	       34.1490395717	       33.7875401824	
        0.9700000000	       34.6525408444	       33.6499741331	
        0.9750000000	       35.0159978013	       33.5335369451	
        0.9800000000	       35.1561007064	       33.3663214846	
        0.9850000000	       35.1283824853	       33.1226321915	
        0.9900000000	       34.9708256647	       32.8472671659	
        0.9950000000	       34.7752532525	       32.6013570886	
        1.0000000000	       34.5115735304	       32.2980667001	
        1.0050000000	       34.2566876638	       32.0401429324	
        1.0100000000	       34.0364266207	       31.8638258552	
        1.0150000000	       33.8309758470	       31.7568153206	
        1.0200000000	       33.6209687478	       31.7006803295	
        1.0250000000	       33.4487445246	       31.6744210008	
        1.0300000000	       33.2418350226	       31.6406542397	
        1.0350000000	       32.9859294624	       31.5794821775	
        1.0400000000	       32.7553230711	       31.4790715440	
        1.0450000000	       32.5652384489	       31.3291840725	
        1.0500000000	       32.4596214844	       31.1793181351	
        1.0550000000	       32.3886372437	       31.0005236247	
        1.0600000000	       32.3350712179	       30.7382730116	
        1.0650000000	       32.2972074859	       30.4585649622	
        1.0700000000	       32.2314220638	       30.1754423372	
        1.0750000000	       32.0979663358	       29.8909724580	
        1.0800000000	       31.8975616694	       29.6566829431	
        1.0850000000	       31.6666874846	       29.4850626594	
        1.0900000000	       31.2692121921	       29.2743960677	
        1.0950000000	       30.7333109663	       29.0660076259	
        1.1000000000	       30.1080431302	       28.8702428196	
        1.1050000000	       29.4199360381	       28.6779689171	
        1.1100000000	       28.7132489685	       28.4857943312	
        1.1150000000	       28.2002743276	       28.3408964843	
        1.1200000000	       27.6466108935	       28.1702459313	
        1.1250000000	       27.0275970724	       27.9512572363	
        1.1300000000	       26.5035168359	       27.7290894215	
        1.1350000000	       26.0235377958	       27.4927414114	
        1.1400000000	       25.5439237961	       27.2492138280	
        1.1450000000	       25.1309087829	       27.0570322405	
        1.1500000000	       24.7343377031	       26.8953592532	
        1.1550000000	       24.1270523691	       26.6915674463	
        1.1600000000	       23.4957476326	       26.5143448601	
        1.1650000000	       22.8678176312	       26.3503561056	
        1.1700000000	       22.3892616699	       26.2186891087	
        1.1750000000	       22.0806125251	       26.1221693067	
        1.1800000000	       21.7988348362	       26.0078842773	
        1.1850000000	       21.7290098706	       25.9251571317	
        1.1900000000	       21.7554023180	       25.9052795340	
        1.1950000000	       21.9712424875	       25.9360497091	
        1.2000000000	       22.2782116873	       26.0428848218	
        1.2050000000	       22.5545202136	       26.1505194096	
        1.2100000000	       22.9083986476	       26.2853573124	
        1.2150000000	       23.3826066431	       26.4409832770	
        1.2200000000	       23.8809745058	       26.5594807421	
        1.2250000000	       24.3887254939	       26.6312264647	
        1.2300000000	       24.8910487781	       26.6588198070	
        1.2350000000	       25.2707718511	       26.6648394797	
        1.2400000000	       25.5767048310	       26.6672210633	
        1.2450000000	       25.9301697273	       26.6911651730	
        1.2500000000	       26.2366479028	       26.7618980284	
        1.2550000000	       26.5210869938	       26.9057147570	
        1.2600000000	       26.8079295073	       27.1408215626	
        1.2650000000	       27.0874919754	       27.4405364747	
        1.2700000000	       27.3079293088	       27.7108337090	
        1.2750000000	       27.5863360507	       28.0790844164	
        1.2800000000	       27.8826458392	       28.4884940239	
        1.2850000000	       28.1326832268	       28.8210941263	
        1.2900000000	       28.3563906300	       29.0704576298	
        1.2950000000	       28.5749528563	       29.2265411107	
        1.3000000000	       28.7673849548	       29.2937307644	
        1.3050000000	       28.9858147701	       29.3244305263	
        1.3100000000	       29.3086085433	       29.3355777048	
        1.3150000000	       29.6844132541	       29.3194898784	
        1.3200000000	       30.0776141736	       29.2770602526	
        1.3250000000	       30.4022653113	       29.2147135560	
        1.3300000000	       30.6776461822	       29.1344512466	
        1.3350000000	       30.9991475359	       29.0037672401	
        1.3400000000	       31.2464391530	       28.8792887626	
        1.3450000000	       31.4368364128	       28.8015464336	
        1.3500000000	       31.5806476385	       28.7928505949	
        1.3550000000	       31.6780213430	       28.8608484339	
        1.3600000000	       31.7331004323	       28.9727080988	
        1.3650000000	       31.7831490560	       29.1619465651	
        1.3700000000	       31.8262138779	       29.4160359824	
        1.3750000000	       31.8696734229	       29.6638618772	
        1.3800000000	       31.9485827787	       29.8866207168	
        1.3850000000	       32.1020934788	       30.0520328783	
        1.3900000000	       32.2846885025	       30.1245302448	
        1.3950000000	       32.5285932439	       30.1463152287	
        1.4000000000	       32.9126442044	       30.1257510859	
        1.4050000000	       33.3107264444	       30.0630853180	
        1.4100000000	       33.6952591621	       29.9864325588	
        1.4150000000	       34.0234193466	       29.9091413887	
        1.4200000000	       34.2398897506	       29.8416839154	
        1.4250000000	       34.3648953996	       29.7839923023	
        1.4300000000	       34.4761913337	       29.6840038822	
        1.4350000000	       34.5684735886	       29.5427579912	
        1.4400000000	       34.6707013229	       29.3642849293	
        1.4450000000	       34.8073616115	       29.1814219293	
        1.4500000000	       34.9448295255	       29.0543467532	
        1.4550000000	       35.1542761161	       28.9516505857	
        1.4600000000	       35.4342977381	       28.9285022383	
        1.4650000000	       35.7331712171	       29.0112183061	
        1.4700000000	       36.0401528935	       29.2344969845	
        1.4750000000	       36.3595219275	       29.5578354672	
        1.4800000000	       36.6217480909	       29.8500493985	
        1.4850000000	       36.9027750089	       30.1597948067	
        1.4900000000	       37.2984519209	       30.5517100729	
        1.4950000000	       37.6922206556	       30.8851198153	
        1.5000000000	       38.0499412535	       31.1719093366	
        1.5050000000	       38.3304265572	       31.4620482068	
        1.5100000000	       38.4566439410	       31.7487632695	
        1.5150000000	       38.4938366588	       32.0251001349	
        1.5200000000	       38.4364138796	       32.4826794429	
        1.5250000000	       38.2845403079	       33.1048469010	
        1.5300000000	       38.0702009483	       33.8245359296	
        1.5350000000	       37.8412062280	       34.5619447677	
        1.5400000000	       37.6167605062	       35.2440432282	
        1.5450000000	       37.4449038950	       35.7047696909	
        1.5500000000	       37.2615385801	       36.1124303831	
        1.5550000000	       37.0700973686	       36.4467456162	
        1.5600000000	       36.9391893828	       36.6241929432	
        1.5650000000	       36.9037579950	       36.6890562234	
        1.5700000000	       36.9408460734	       36.6896673104	
        1.5750000000	       37.0507942568	       36.6880609891	
        1.5800000000	       37.2594427319	       36.6921703098	
        1.5850000000	       37.4792636793	       36.7322361716	
        1.5900000000	       37.6370311929	       36.8028694436	
        1.5950000000	       37.6446255165	       36.8983350740	
        1.6000000000	       37.5702412030	       36.9991426107	
        1.6050000000	       37.3808885838	       37.0953453817	
        1.6100000000	       37.0563196350	       37.2567528704	
        1.6150000000	       36.6528365455	       37.4876114616	
        1.6200000000	       36.2640023891	       37.7862023931	
        1.6250000000	       35.9465116815	       38.1378857699	
        1.6300000000	       35.7303059073	       38.4909304311	
        1.6350000000	       35.6351710878	       38.7193468387	
        1.6400000000	       35.5681660742	       38.8980580802	
        1.6450000000	       35.5096092914	       38.9876191722	
        1.6500000000	       35.4403010516	       38.9563767541	
        1.6550000000	       35.3263148520	       38.8308402047	
        1.6600000000	       35.1659830906	       38.6843799642	
        1.6650000000	       35.0214479287	       38.6117988662	
        1.6700000000	       34.9047907365	       38.5857571042	
